<?xml version="1.0" standalone="no"?>
<!DOCTYPE svg PUBLIC "-//W3C//DTD SVG 20010904//EN" "http://www.w3.org/TR/2001/REC-SVG-20010904/DTD/svg10.dtd">
<svg version="1.0" xmlns="http://www.w3.org/2000/svg" width="900.000000pt" height="500.000000pt"
        class="black-500 text-gray-900 dark:text-red w-auto h-10" viewBox="0 0 900.000000 500.000000" fill="black"
        preserveAspectRatio="xMidYMid meet">

        <g transform="translate(0.000000,500.000000) scale(0.100000,-0.100000)" stroke="black" stroke-width="13">
                <path fill="black" d="M567 4439 c-161 -17 -397 -65 -397 -81 0 -17 123 -234 196 -344 185
-281 435 -535 694 -707 198 -131 499 -261 690 -297 36 -7 69 -16 73 -20 4 -4
-3 -52 -17 -107 -57 -224 -70 -338 -70 -618 -1 -205 3 -284 17 -373 58 -361
177 -674 358 -944 33 -48 59 -91 59 -96 0 -15 -142 -202 -206 -272 -87 -95
-198 -198 -287 -269 -86 -67 -87 -78 -5 -30 179 105 332 224 481 372 l99 98
117 -117 c122 -122 299 -263 421 -334 39 -23 73 -40 75 -38 2 2 -32 32 -75 67
-145 116 -331 321 -434 477 l-27 42 76 113 c267 396 401 884 382 1384 -8 195
-27 326 -73 510 -20 77 -36 146 -37 153 -1 9 30 24 88 41 420 128 835 415
1141 791 143 176 355 503 337 521 -11 11 -179 48 -298 64 -309 43 -601 20
-869 -66 -126 -41 -352 -155 -466 -236 -52 -37 -155 -127 -229 -200 l-134
-133 -96 98 c-314 319 -705 506 -1150 551 -117 12 -319 12 -434 0z m214 -54
c281 -17 630 -145 878 -323 119 -85 277 -235 378 -359 l77 -95 -32 -57 c-18
-31 -67 -124 -108 -207 -71 -145 -75 -151 -102 -147 -488 75 -922 290 -1271
628 -153 148 -300 331 -400 497 l-21 36 68 12 c38 6 125 15 193 19 120 8 158
7 340 -4z m3377 -15 c40 -7 72 -17 72 -24 0 -13 -95 -146 -190 -268 -254 -324
-656 -615 -1054 -763 -85 -31 -349 -105 -376 -105 -6 0 -29 42 -53 93 -24 50
-71 138 -105 194 -34 56 -62 108 -62 115 0 6 21 39 47 72 307 398 700 630
1173 696 86 12 456 5 548 -10z m-1856 -1087 l46 -98 -95 -8 c-52 -5 -97 -7
-100 -4 -6 7 88 207 97 207 4 0 28 -44 52 -97z m171 -480 c60 -245 72 -345 72
-628 0 -191 -5 -277 -18 -365 -43 -275 -113 -502 -224 -727 -25 -51 -49 -93
-53 -93 -12 0 -108 214 -150 336 -51 149 -83 275 -112 440 -19 111 -22 166
-23 404 0 327 16 455 96 753 l10 37 112 1 c62 1 139 4 172 8 43 5 63 3 71 -6
6 -7 27 -79 47 -160z" />
                <path d="M4452 1939 c-166 -25 -299 -121 -367 -264 -43 -90 -55 -152 -55 -278
0 -170 39 -282 134 -384 104 -113 209 -155 386 -154 166 0 269 36 374 131 201
185 209 600 15 805 -109 116 -301 172 -487 144z m190 -151 c121 -36 208 -198
208 -388 0 -281 -168 -451 -384 -388 -60 18 -146 107 -176 183 -21 53 -24 77
-25 200 0 162 12 210 75 298 67 94 184 130 302 95z" />
                <path d="M2970 1400 l0 -520 110 0 110 0 0 235 0 235 215 0 215 0 0 -235 0
-235 105 0 105 0 0 520 0 520 -105 0 -105 0 0 -210 0 -210 -215 0 -215 0 0
210 0 210 -110 0 -110 0 0 -520z" />
                <path d="M5280 1401 l0 -521 100 0 100 0 2 213 3 212 59 0 60 0 129 -212 129
-213 129 0 c101 0 129 3 123 13 -4 6 -79 114 -166 239 -87 124 -158 229 -158
231 0 3 20 17 44 31 93 54 150 158 149 270 -2 116 -37 177 -130 223 l-58 28
-257 3 -258 4 0 -521z m420 349 c68 -35 88 -114 51 -196 -32 -70 -102 -104
-213 -104 l-58 0 0 158 c0 87 3 162 8 166 14 16 169 -2 212 -24z" />
                <path d="M6270 1400 l0 -520 110 0 110 0 0 520 0 520 -110 0 -110 0 0 -520z" />
                <path d="M6750 1400 l0 -520 85 0 85 0 0 351 c0 205 4 348 9 345 5 -3 114
-161 241 -351 l233 -345 98 0 99 0 0 520 0 520 -90 0 -90 0 -2 -349 -3 -349
-235 346 -236 347 -97 3 -97 3 0 -521z" />
        </g>
</svg>